<svg width="500" height="400" viewBox="0 0 500 400" fill="none" xmlns="http://www.w3.org/2000/svg">
    <!-- Dog -->
    <circle cx="250" cy="200" r="100" fill="#F4A460"/>
    <circle cx="200" cy="150" r="25" fill="#8B4513"/>
    <circle cx="300" cy="150" r="25" fill="#8B4513"/>
    <ellipse cx="250" cy="190" rx="15" ry="10" fill="#8B4513"/>
    <path d="M220 230 Q250 250 280 230" stroke="#8B4513" stroke-width="5" fill="none"/>
    
    <!-- Dog Ears -->
    <path d="M160 120 Q180 80 200 120" fill="#F4A460"/>
    <path d="M300 120 Q320 80 340 120" fill="#F4A460"/>
    
    <!-- Cat -->
    <circle cx="150" cy="300" r="70" fill="#808080"/>
    <polygon points="100,250 120,200 140,250" fill="#808080"/>
    <polygon points="160,250 180,200 200,250" fill="#808080"/>
    <circle cx="130" cy="280" r="15" fill="#FFD700"/>
    <circle cx="170" cy="280" r="15" fill="#FFD700"/>
    <ellipse cx="150" cy="300" rx="10" ry="5" fill="#FFD700"/>
    
    <!-- Bird -->
    <circle cx="350" cy="100" r="40" fill="#4169E1"/>
    <polygon points="380,100 400,110 380,120" fill="#FFD700"/>
    <circle cx="340" cy="90" r="10" fill="white"/>
    <circle cx="340" cy="90" r="5" fill="black"/>
    
    <!-- Hearts -->
    <path d="M50 150 Q30 130 50 110 Q70 130 50 150" fill="#FF69B4"/>
    <path d="M450 250 Q430 230 450 210 Q470 230 450 250" fill="#FF69B4"/>
    <path d="M250 50 Q230 30 250 10 Q270 30 250 50" fill="#FF69B4"/>
</svg> 